<?xml version="1.0" standalone="no"?>
<!DOCTYPE svg PUBLIC "-//W3C//DTD SVG 20010904//EN"
 "http://www.w3.org/TR/2001/REC-SVG-20010904/DTD/svg10.dtd">
<svg version="1.0" xmlns="http://www.w3.org/2000/svg"
 width="205.000000pt" height="205.000000pt" viewBox="0 0 205.000000 205.000000"
 preserveAspectRatio="xMidYMid meet">
<metadata>
Created by potrace 1.14, written by Peter Selinger 2001-2017
</metadata>
<g transform="translate(0.000000,205.000000) scale(0.100000,-0.100000)"
fill="#000000" stroke="none">
<path d="M1110 1040 l0 -600 70 0 70 0 0 535 0 535 256 0 c344 0 338 4 332
-214 -5 -185 -4 -185 -335 -186 l-203 0 1 -52 1 -53 293 -282 294 -283 80 0
c58 0 81 4 81 13 0 6 -125 131 -278 277 l-278 265 161 6 c168 6 216 17 262 61
46 43 55 90 51 274 -3 194 -13 227 -81 272 l-41 27 -368 3 -368 3 0 -601z"/>
<path d="M20 1452 l0 -60 303 -135 c166 -74 341 -152 389 -174 48 -21 88 -40
88 -43 0 -3 -174 -81 -386 -175 -212 -93 -388 -175 -391 -181 -2 -6 -3 -34 -1
-62 l3 -51 457 207 458 207 0 56 0 55 -447 203 c-246 112 -453 206 -460 208
-10 4 -13 -11 -13 -55z"/>
</g>
</svg>
